<svg width="64" height="64" viewBox="0 0 64 64" fill="none" xmlns="http://www.w3.org/2000/svg">
  <path d="M10 25C10 21.686 12.686 19 16 19H36V42H10V25Z" fill="#3763F4"/>
  <path d="M36 27H45.4C46.944 27 48.394 27.742 49.296 28.996L55 36.92V42H36V27Z" fill="#3763F4"/>
  <path d="M14 42H54" stroke="#3763F4" stroke-width="4" stroke-linecap="round"/>
  <path d="M22 50C25.866 50 29 46.866 29 43C29 39.134 25.866 36 22 36C18.134 36 15 39.134 15 43C15 46.866 18.134 50 22 50Z" fill="#3763F4"/>
  <path d="M46 50C49.866 50 53 46.866 53 43C53 39.134 49.866 36 46 36C42.134 36 39 39.134 39 43C39 46.866 42.134 50 46 50Z" fill="#3763F4"/>
  <path d="M22 45.5C23.381 45.5 24.5 44.381 24.5 43C24.5 41.619 23.381 40.5 22 40.5C20.619 40.5 19.5 41.619 19.5 43C19.5 44.381 20.619 45.5 22 45.5Z" fill="#FFFFFF"/>
  <path d="M46 45.5C47.381 45.5 48.5 44.381 48.5 43C48.5 41.619 47.381 40.5 46 40.5C44.619 40.5 43.5 41.619 43.5 43C43.5 44.381 44.619 45.5 46 45.5Z" fill="#FFFFFF"/>
  <path d="M18 27H29" stroke="#FFFFFF" stroke-width="3" stroke-linecap="round"/>
  <path d="M41 32H47" stroke="#FFFFFF" stroke-width="3" stroke-linecap="round"/>
</svg>
