<svg width="64" height="64" viewBox="0 0 64 64" fill="none" xmlns="http://www.w3.org/2000/svg">
  <path d="M10 25C10 21.686 12.686 19 16 19H36V42H10V25Z" stroke="#A9B0BD" stroke-width="4" stroke-linejoin="round"/>
  <path d="M36 27H45.4C46.944 27 48.394 27.742 49.296 28.996L55 36.92V42H36V27Z" stroke="#A9B0BD" stroke-width="4" stroke-linejoin="round"/>
  <path d="M14 42H54" stroke="#A9B0BD" stroke-width="4" stroke-linecap="round"/>
  <path d="M22 49C25.314 49 28 46.314 28 43C28 39.686 25.314 37 22 37C18.686 37 16 39.686 16 43C16 46.314 18.686 49 22 49Z" fill="#F4F6FB" stroke="#A9B0BD" stroke-width="4"/>
  <path d="M46 49C49.314 49 52 46.314 52 43C52 39.686 49.314 37 46 37C42.686 37 40 39.686 40 43C40 46.314 42.686 49 46 49Z" fill="#F4F6FB" stroke="#A9B0BD" stroke-width="4"/>
  <path d="M18 27H29" stroke="#A9B0BD" stroke-width="3" stroke-linecap="round"/>
  <path d="M41 32H47" stroke="#A9B0BD" stroke-width="3" stroke-linecap="round"/>
</svg>
